<?xml version="1.0" standalone="no"?>
<!DOCTYPE svg PUBLIC "-//W3C//DTD SVG 20010904//EN"
 "http://www.w3.org/TR/2001/REC-SVG-20010904/DTD/svg10.dtd">
<svg version="1.0" xmlns="http://www.w3.org/2000/svg"
 width="1024.000000pt" height="1024.000000pt" viewBox="0 0 1024.000000 1024.000000"
 preserveAspectRatio="xMidYMid meet">

<g transform="translate(0.000000,1024.000000) scale(0.100000,-0.100000)"
fill="#003932" stroke="none">
<path d="M6835 8285 c-357 -49 -952 -128 -1125 -150 -113 -14 -356 -46 -540
-71 -184 -25 -486 -65 -670 -89 -184 -24 -454 -60 -600 -80 -146 -19 -393 -51
-550 -70 -444 -55 -828 -113 -905 -136 -215 -64 -409 -248 -493 -466 -60 -156
-57 -21 -57 -2338 0 -1990 1 -2134 17 -2193 85 -307 312 -540 613 -629 57 -17
196 -18 2574 -21 2500 -2 2514 -2 2599 18 260 62 464 249 565 517 21 57 21 74
27 668 3 336 5 611 5 612 0 1 -73 3 -163 5 l-162 3 0 -495 c0 -272 -4 -522 -9
-555 -34 -226 -213 -415 -421 -444 -96 -13 -4521 -15 -4636 -2 -184 22 -299
77 -430 206 -69 68 -89 96 -132 185 -89 181 -83 36 -80 1960 3 1584 4 1699 21
1755 60 204 205 382 382 467 152 73 -35 68 2530 68 2550 0 2362 5 2489 -63 81
-42 173 -137 219 -224 65 -124 67 -141 67 -690 l0 -493 163 0 162 0 0 613 c-1
671 -2 679 -60 802 -66 138 -183 253 -330 326 -113 55 -179 70 -342 76 l-143
6 0 231 c-1 397 -17 470 -127 583 -76 79 -163 116 -273 119 -47 2 -130 -4
-185 -11z m-1165 -545 c53 -27 72 -59 72 -120 0 -38 -6 -61 -27 -91 l-27 -41
29 6 c15 3 123 17 238 31 194 23 382 47 629 79 116 16 154 9 190 -34 50 -60
42 -155 -17 -190 -31 -20 -66 -20 -1944 -20 -1711 0 -1912 2 -1907 15 11 27
37 33 270 65 126 17 295 40 376 51 81 10 250 32 375 48 125 16 347 45 493 65
146 19 441 58 657 86 215 28 411 55 435 59 72 15 117 12 158 -9z"/>
<path d="M2843 6746 c-126 -40 -245 -157 -297 -294 l-21 -57 0 -1675 0 -1675
100 1 c113 1 164 18 227 73 63 55 68 86 68 415 0 263 2 295 18 325 48 89 180
94 232 8 19 -30 20 -52 20 -338 0 -169 -5 -331 -10 -360 -24 -128 -130 -262
-252 -319 -75 -35 -195 -54 -283 -44 l-59 6 15 -23 c25 -39 133 -115 196 -139
32 -12 87 -26 123 -31 38 -6 995 -8 2320 -7 l2255 3 53 24 c30 13 68 42 88 64
63 75 64 84 64 649 l0 508 -387 0 c-214 0 -427 5 -475 10 -291 33 -526 205
-657 481 -70 146 -93 292 -71 447 28 202 101 344 254 498 80 79 118 109 181
141 178 91 271 103 786 103 l370 0 -3 513 c-3 503 -3 513 -25 552 -28 52 -77
101 -127 128 l-41 22 -2310 2 c-1891 1 -2318 -1 -2352 -11z m1656 -234 c89
-48 93 -171 8 -222 -31 -19 -56 -20 -812 -20 -604 0 -786 3 -805 13 -13 7 -35
28 -48 47 -42 62 -15 145 59 182 31 17 90 18 799 18 722 0 767 -1 799 -18z"/>
<path d="M6889 5279 c-243 -26 -444 -200 -505 -434 -25 -99 -23 -231 4 -320
40 -134 158 -279 277 -342 120 -63 94 -61 876 -64 653 -2 718 -1 765 14 69 24
127 76 161 145 l28 57 0 360 0 360 -26 55 c-34 71 -89 125 -153 149 -48 18
-91 19 -711 22 -363 2 -685 1 -716 -2z m142 -354 c98 -34 158 -113 167 -220
11 -146 -101 -265 -249 -265 -254 0 -352 312 -144 456 65 45 147 56 226 29z"/>
</g>
</svg>
